<svg width="495" height="131" viewBox="0 0 495 131" fill="none" xmlns="http://www.w3.org/2000/svg">
<path d="M99.96 92.912C100.536 94.16 100.824 95.408 100.824 96.656C100.824 98.864 99.912 100.736 98.088 102.272C96.36 103.808 94.344 104.576 92.04 104.576C90.504 104.576 89.064 104.192 87.72 103.424C86.376 102.56 85.32 101.264 84.552 99.536L75.912 80.24H25.224L16.584 99.536C15.816 101.264 14.76 102.56 13.416 103.424C12.072 104.192 10.584 104.576 8.952 104.576C6.744 104.576 4.728 103.808 2.904 102.272C1.08 100.736 0.168 98.864 0.168 96.656C0.168 95.408 0.456 94.16 1.032 92.912L40.776 7.52C41.64 5.59999 42.936 4.15999 44.664 3.19999C46.488 2.144 48.408 1.616 50.424 1.616C52.44 1.616 54.312 2.144 56.04 3.19999C57.864 4.15999 59.208 5.59999 60.072 7.52L99.96 92.912ZM31.56 65.84H69.576L50.568 23.072L31.56 65.84ZM103.155 130.208C99.699 130.4 97.059 129.92 95.235 128.768C93.315 127.616 92.355 125.84 92.355 123.44C92.355 119.504 94.755 117.344 99.555 116.96L103.443 116.672C106.707 116.48 109.155 115.472 110.787 113.648C112.419 111.824 113.235 109.04 113.235 105.296V40.64C113.235 37.856 114.051 35.744 115.683 34.304C117.411 32.864 119.571 32.144 122.163 32.144C124.755 32.144 126.915 32.864 128.643 34.304C130.371 35.744 131.235 37.856 131.235 40.64V104C131.235 120.128 123.171 128.768 107.043 129.92L103.155 130.208ZM122.019 19.328C118.755 19.328 116.163 18.464 114.243 16.736C112.323 14.912 111.363 12.56 111.363 9.68C111.363 6.79999 112.323 4.49599 114.243 2.768C116.163 1.04 118.755 0.175998 122.019 0.175998C125.187 0.175998 127.731 1.04 129.651 2.768C131.667 4.49599 132.675 6.79999 132.675 9.68C132.675 12.56 131.715 14.912 129.795 16.736C127.875 18.464 125.283 19.328 122.019 19.328ZM205.382 32.144C208.166 32.144 210.374 32.912 212.006 34.448C213.638 35.984 214.453 38.048 214.453 40.64V96.512C214.453 99.008 213.59 101.024 211.862 102.56C210.23 104.096 208.07 104.864 205.382 104.864C202.79 104.864 200.726 104.144 199.19 102.704C197.654 101.264 196.886 99.296 196.886 96.8V93.2C194.678 97.04 191.702 100.016 187.958 102.128C184.214 104.144 179.99 105.152 175.286 105.152C158.006 105.152 149.366 95.456 149.366 76.064V40.64C149.366 38.048 150.182 35.984 151.814 34.448C153.446 32.912 155.606 32.144 158.294 32.144C161.078 32.144 163.286 32.912 164.918 34.448C166.55 35.984 167.366 38.048 167.366 40.64V76.208C167.366 81.2 168.374 84.896 170.39 87.296C172.406 89.696 175.574 90.896 179.894 90.896C184.886 90.896 188.87 89.264 191.846 86C194.918 82.64 196.454 78.224 196.454 72.752V40.64C196.454 38.048 197.27 35.984 198.902 34.448C200.534 32.912 202.694 32.144 205.382 32.144ZM291.94 1.75999C294.628 1.75999 296.836 2.528 298.564 4.064C300.292 5.6 301.156 7.616 301.156 10.112V96.224C301.156 98.816 300.34 100.88 298.708 102.416C297.076 103.952 294.916 104.72 292.228 104.72C289.54 104.72 287.38 103.952 285.748 102.416C284.116 100.88 283.3 98.816 283.3 96.224V92.624C281.188 96.56 278.116 99.632 274.084 101.84C270.148 104.048 265.636 105.152 260.548 105.152C254.5 105.152 249.076 103.616 244.276 100.544C239.572 97.472 235.876 93.152 233.188 87.584C230.596 81.92 229.3 75.44 229.3 68.144C229.3 60.848 230.596 54.464 233.188 48.992C235.876 43.52 239.572 39.296 244.276 36.32C248.98 33.344 254.404 31.856 260.548 31.856C265.636 31.856 270.148 32.912 274.084 35.024C278.02 37.136 281.044 40.112 283.156 43.952V9.82399C283.156 7.424 283.924 5.504 285.46 4.064C287.092 2.528 289.252 1.75999 291.94 1.75999ZM265.3 91.184C271.06 91.184 275.476 89.216 278.548 85.28C281.716 81.344 283.3 75.728 283.3 68.432C283.3 61.136 281.716 55.568 278.548 51.728C275.476 47.792 271.108 45.824 265.444 45.824C259.684 45.824 255.22 47.744 252.052 51.584C248.884 55.424 247.3 60.944 247.3 68.144C247.3 75.44 248.884 81.104 252.052 85.136C255.22 89.168 259.636 91.184 265.3 91.184ZM350.201 31.856C359.993 31.856 367.241 34.304 371.945 39.2C376.745 44 379.145 51.344 379.145 61.232V96.368C379.145 98.96 378.377 101.024 376.841 102.56C375.305 104 373.193 104.72 370.505 104.72C368.009 104.72 365.945 103.952 364.313 102.416C362.777 100.88 362.009 98.864 362.009 96.368V93.2C360.377 96.944 357.785 99.872 354.233 101.984C350.777 104.096 346.745 105.152 342.137 105.152C337.433 105.152 333.161 104.192 329.32 102.272C325.481 100.352 322.457 97.712 320.249 94.352C318.041 90.992 316.937 87.248 316.937 83.12C316.937 77.936 318.233 73.856 320.825 70.88C323.513 67.904 327.833 65.744 333.785 64.4C339.737 63.056 347.945 62.384 358.409 62.384H362.009V59.072C362.009 54.368 361.001 50.96 358.985 48.848C356.969 46.64 353.705 45.536 349.193 45.536C346.409 45.536 343.577 45.968 340.697 46.832C337.817 47.6 334.409 48.752 330.473 50.288C327.977 51.536 326.153 52.16 325.001 52.16C323.273 52.16 321.833 51.536 320.681 50.288C319.625 49.04 319.097 47.408 319.097 45.392C319.097 43.76 319.481 42.368 320.249 41.216C321.113 39.968 322.505 38.816 324.425 37.76C327.785 35.936 331.769 34.496 336.377 33.44C341.081 32.384 345.689 31.856 350.201 31.856ZM345.737 92.192C350.537 92.192 354.425 90.608 357.401 87.44C360.473 84.176 362.009 80 362.009 74.912V71.888H359.417C352.985 71.888 347.993 72.176 344.441 72.752C340.889 73.328 338.345 74.336 336.809 75.776C335.273 77.216 334.505 79.184 334.505 81.68C334.505 84.752 335.561 87.296 337.673 89.312C339.881 91.232 342.569 92.192 345.737 92.192ZM460.078 90.032C461.998 91.856 462.958 93.92 462.958 96.224C462.958 98.432 462.142 100.4 460.51 102.128C458.974 103.856 457.15 104.72 455.038 104.72C452.926 104.72 450.958 103.856 449.134 102.128L415.438 71.6V96.224C415.438 99.008 414.574 101.12 412.846 102.56C411.118 104 408.958 104.72 406.366 104.72C403.774 104.72 401.614 104 399.886 102.56C398.254 101.12 397.438 99.008 397.438 96.224V10.256C397.438 7.472 398.254 5.36 399.886 3.91999C401.614 2.47999 403.774 1.75999 406.366 1.75999C408.958 1.75999 411.118 2.47999 412.846 3.91999C414.574 5.36 415.438 7.472 415.438 10.256V64.4L446.254 34.88C447.982 33.152 449.95 32.288 452.158 32.288C454.366 32.288 456.286 33.104 457.918 34.736C459.55 36.368 460.366 38.288 460.366 40.496C460.366 42.704 459.454 44.72 457.63 46.544L435.022 67.568L460.078 90.032ZM483.569 104.864C480.977 104.864 478.817 104.144 477.089 102.704C475.457 101.168 474.641 99.008 474.641 96.224V40.64C474.641 37.856 475.457 35.744 477.089 34.304C478.817 32.864 480.977 32.144 483.569 32.144C486.161 32.144 488.321 32.864 490.049 34.304C491.777 35.744 492.641 37.856 492.641 40.64V96.224C492.641 99.008 491.777 101.168 490.049 102.704C488.321 104.144 486.161 104.864 483.569 104.864ZM483.569 19.328C480.305 19.328 477.713 18.464 475.793 16.736C473.873 14.912 472.913 12.56 472.913 9.68C472.913 6.79999 473.873 4.49599 475.793 2.768C477.713 1.04 480.305 0.175998 483.569 0.175998C486.737 0.175998 489.281 1.04 491.201 2.768C493.217 4.49599 494.225 6.79999 494.225 9.68C494.225 12.56 493.265 14.912 491.345 16.736C489.425 18.464 486.833 19.328 483.569 19.328Z" fill="#FFFCFC"/>
</svg>
